<svg width="48" height="58" viewBox="0 0 48 58" fill="none" xmlns="http://www.w3.org/2000/svg">
    <path d="M41.25 0C42.1364 0 43.0142 0.168478 43.8331 0.495815C44.6521 0.823152 45.3962 1.30294 46.023 1.90778C46.6498 2.51262 47.147 3.23067 47.4862 4.02093C47.8254 4.81119 48 5.65819 48 6.51356V51.3992C48 52.2546 47.8254 53.1016 47.4862 53.8919C47.147 54.6821 46.6498 55.4002 46.023 56.005C45.3962 56.6098 44.6521 57.0896 43.8331 57.417C43.0142 57.7443 42.1364 57.9128 41.25 57.9128H6.75C5.86358 57.9128 4.98583 57.7443 4.16689 57.417C3.34794 57.0896 2.60383 56.6098 1.97703 56.005C1.35023 55.4002 0.853032 54.6821 0.513813 53.8919C0.174593 53.1016 5.09961e-08 52.2546 5.09961e-08 51.3992V6.51356C-0.000210066 4.86309 0.648886 3.27409 1.81611 2.06768C2.98333 0.861279 4.58163 0.12744 6.288 0.0144749L6.75 0H41.25ZM43.5 40.5288H4.5V51.3992C4.5 52.5977 5.508 53.5704 6.75 53.5704H41.25C41.8467 53.5704 42.419 53.3417 42.841 52.9345C43.2629 52.5273 43.5 51.9751 43.5 51.3992V40.5288ZM11.253 44.8712H36.75C37.3201 44.8714 37.8688 45.0803 38.2854 45.4559C38.7019 45.8314 38.9552 46.3456 38.9941 46.8944C39.0329 47.4432 38.8545 47.9858 38.4947 48.4125C38.135 48.8393 37.6207 49.1183 37.056 49.1933L36.75 49.2136H11.253C10.6832 49.2127 10.1349 49.0032 9.71897 48.6274C9.30299 48.2516 9.05026 47.7375 9.0118 47.1889C8.97334 46.6403 9.15202 46.0981 9.51176 45.6716C9.8715 45.2452 10.3855 44.9664 10.95 44.8915L11.253 44.8712H36.75H11.253ZM41.25 4.34237H6.75L6.444 4.36264C5.90534 4.43399 5.41167 4.69115 5.0543 5.08657C4.69693 5.48198 4.50002 5.98889 4.5 6.51356V36.1864H12V29.6584C12 27.7854 13.476 26.2453 15.366 26.06L15.75 26.0398H32.25C34.191 26.0398 35.79 27.4641 35.979 29.2908L36 29.6584V36.1864H43.5V6.51356C43.5 5.93773 43.2629 5.38548 42.841 4.9783C42.419 4.57112 41.8467 4.34237 41.25 4.34237ZM31.5 30.3821H16.5V36.1864H31.5V30.3821ZM24 8.67027C25.9891 8.67027 27.8968 9.43277 29.3033 10.79C30.7098 12.1473 31.5 13.9881 31.5 15.9076C31.5 17.827 30.7098 19.6678 29.3033 21.0251C27.8968 22.3824 25.9891 23.1448 24 23.1448C22.0109 23.1448 20.1032 22.3824 18.6967 21.0251C17.2902 19.6678 16.5 17.827 16.5 15.9076C16.5 13.9881 17.2902 12.1473 18.6967 10.79C20.1032 9.43277 22.0109 8.67027 24 8.67027ZM24 13.0126C23.2044 13.0126 22.4413 13.3176 21.8787 13.8605C21.3161 14.4034 21 15.1398 21 15.9076C21 16.6753 21.3161 17.4117 21.8787 17.9546C22.4413 18.4975 23.2044 18.8025 24 18.8025C24.7956 18.8025 25.5587 18.4975 26.1213 17.9546C26.6839 17.4117 27 16.6753 27 15.9076C27 15.1398 26.6839 14.4034 26.1213 13.8605C25.5587 13.3176 24.7956 13.0126 24 13.0126Z" fill="white" fill-opacity="0.6"/>
</svg>
